<svg xmlns="http://www.w3.org/2000/svg" width="38.546" height="23.128" viewBox="0 0 38.546 23.128">
    <defs>
        <style>
            .cls-1{fill:#777}
        </style>
    </defs>
    <g id="Group_1771" data-name="Group 1771" transform="translate(.001 -.002)">
        <path id="Path_778" d="M7.765 69.282h23.077c.012-.242.032-.462.032-.682 0-1.707 0-3.413.011-5.12a1.775 1.775 0 0 1 1.818-1.8 18.821 18.821 0 0 1 2.973.14 3.357 3.357 0 0 1 2.79 2.906 3.661 3.661 0 0 1-1.4 3.764.972.972 0 0 0-.432.882 689.3 689.3 0 0 1 0 6.431c0 .907-.337 1.239-1.238 1.241h-3.184c-.989 0-1.377-.359-1.455-1.346-.011-.145-.016-.29-.03-.547h-.717q-10.8 0-21.606-.012c-.588 0-.806.134-.771.751.05.87-.262 1.149-1.142 1.154q-1.748.009-3.5 0c-.653 0-.969-.284-.982-.938a325 325 0 0 1-.08-6.549 1.366 1.366 0 0 0-.522-1.179 3.581 3.581 0 0 1-1.229-4.02 3.438 3.438 0 0 1 2.835-2.586 9.936 9.936 0 0 1 3.223-.035c1.034.182 1.489.823 1.517 2.186.031 1.539.007 3.081.007 4.621.005.222.005.447.005.738z" class="cls-1" data-name="Path 778" transform="translate(0 -53.92)"/>
        <path id="Path_779" d="M37.081 13.444c0-1.288.032-2.516-.009-3.74a3.679 3.679 0 0 0-1.834-3.319 4.194 4.194 0 0 0-1.575-.478 21.76 21.76 0 0 0-2.292-.02 4.889 4.889 0 0 1 1.133-3.6A5.638 5.638 0 0 1 37.25.005C43.576.005 49.9 0 56.23.009a5.728 5.728 0 0 1 5.8 4.72c.2.953.045 1.129-.906 1.163a5.252 5.252 0 0 0-2.629.28 3.622 3.622 0 0 0-2.08 3.281c0 1.166-.009 2.331 0 3.5 0 .4-.131.553-.543.552q-9.209-.013-18.419-.009a3.121 3.121 0 0 1-.372-.052z" class="cls-1" data-name="Path 779" transform="translate(-27.427)"/>
    </g>
</svg>
