<svg xmlns="http://www.w3.org/2000/svg" width="38.649" height="23.151" viewBox="0 0 38.649 23.151">
    <defs>
        <style>
            .cls-1{fill:#777}
        </style>
    </defs>
    <g id="Group_1770" data-name="Group 1770" transform="translate(.005 .008)">
        <path id="Path_776" d="M3.87 13.457h13.511v-.693V5.01c0-.822.308-1.143 1.113-1.145 4.544 0 9.089-.055 13.632.021A6.494 6.494 0 0 1 38.4 9.269a16.692 16.692 0 0 1 .23 2.593c.026 3.251.011 6.5.01 9.756 0 1.178-.347 1.521-1.525 1.521-.459 0-.917.006-1.376 0a.9.9 0 0 1-.967-.968c-.011-.933 0-1.868 0-2.85H3.87v2.408c0 1.085-.328 1.41-1.414 1.412-.479 0-.96.011-1.439 0A.965.965 0 0 1 0 22.116c-.006-.1 0-.209 0-.313V1.229C0 .272.269 0 1.2-.007h1.439c.9 0 1.226.328 1.226 1.251q.006 5.161 0 10.32z" class="cls-1" data-name="Path 776"/>
        <path id="Path_777" d="M50.767 15.87a4.606 4.606 0 0 1 4.793 4.83 4.75 4.75 0 0 1-4.845 4.752 4.856 4.856 0 0 1-4.8-4.955c-.036-2.032 2.037-4.914 4.852-4.627z" class="cls-1" data-name="Path 777" transform="translate(-40.176 -13.874)"/>
    </g>
</svg>
